<?xml version="1.0" encoding="UTF-8"?>
<svg id="Layer_2" data-name="Layer 2" xmlns="http://www.w3.org/2000/svg" viewBox="0 0 835.83 231">
  <defs>
    <style>
      .cls-1 {
        fill: #ff7900;
      }

      .cls-2 {
        fill: #0434d7;
      }
    </style>
  </defs>
  <g id="Layer_1-2" data-name="Layer 1">
    <g>
      <g>
        <path class="cls-2" d="M371.76,86.39h17.01l35.94,98.22h-15.53l-10.21-28.7h-38.61l-10.65,28.7h-15.09l37.13-98.22ZM394.54,142.89l-14.64-40.53-15.09,40.53h29.73Z"/>
        <path class="cls-2" d="M431.73,84.91h14.05v62.57l28.55-32.69h16.71l-24.85,26.03,26.48,43.78h-15.68l-20.12-33.73-11.09,12.57v21.15h-14.05v-99.7Z"/>
        <path class="cls-2" d="M490.66,149.84c0-21.3,14.5-36.24,35.06-36.24s34.91,14.94,34.91,36.24-14.79,35.94-35.2,35.94-34.76-14.64-34.76-35.94ZM545.98,150.29v-.59c0-14.64-7.69-23.96-20.26-23.96s-20.56,9.32-20.56,23.96v.59c0,14.35,7.69,23.22,20.26,23.22s20.56-8.88,20.56-23.22Z"/>
      </g>
      <g>
        <path class="cls-2" d="M593.11,86.39h36.98c21.6,0,32.99,8.88,32.99,25.89,0,10.06-5.18,16.71-14.94,20.12,12.28,3.7,19.38,11.54,19.38,23.96,0,18.79-12.43,28.25-36.39,28.25h-38.01v-98.22ZM647.69,113.01c.59-9.76-4.44-13.76-17.16-13.76h-22.78v27.66h19.67c13.46,0,20.26-4.88,20.26-13.9ZM651.68,155.61c.3-10.95-7.4-16.12-22.04-16.12h-21.89v32.25h22.34c14.35,0,21.6-4.88,21.6-16.12Z"/>
        <path class="cls-2" d="M684.03,103.69h-7.25v-17.31h17.16v15.98c0,12.72-5.77,22.48-19.82,25.59l-2.22-5.92c9.17-2.51,12.13-8.43,12.13-18.34Z"/>
        <path class="cls-2" d="M710.64,167.15v-40.09h-11.24v-12.28h11.24v-13.76l13.76-8.58v22.34h37.29v12.28h-37.29v38.46c0,4.44,1.77,6.51,6.36,6.51h8.28v12.57h-12.42c-12.57,0-15.98-6.36-15.98-17.45Z"/>
        <path class="cls-2" d="M746.89,88.16h15.38v15.38h-15.38v-15.38ZM747.19,114.79h14.5v69.82h-14.5v-69.82Z"/>
        <path class="cls-2" d="M774.89,84.91h14.05v62.57l28.55-32.69h16.71l-24.85,26.03,26.48,43.78h-15.68l-20.12-33.73-11.09,12.57v21.15h-14.05v-99.7Z"/>
      </g>
      <g>
        <path class="cls-2" d="M309.56,33.92c-9.75.44-19.51.88-29.26,1.32h-.01c-1.35-10.34-6.51-19.61-14.64-26.2-8.4-6.81-18.95-9.94-29.7-8.82-20.03,2.09-35.46,18.83-36.24,38.65-4.87.22-9.75.44-14.62.66-8.79,2.75-17.58,5.51-26.38,8.26,3.09,8.22,9.47,27.65,8.16,52.77,1.46.7,2.88,1.37,4.26,2.02,2.73,1.29,5.42,2.57,8.03,3.92l1.38-.8c1.06-.61,5.68-3.23,12.34-6.05,3.02-1.28,6.45-2.61,10.15-3.81.4-17.99-1.9-33.91-4.98-46.88l102.74-4.64c1.64,15.05,2.12,30.18,1.41,45.11-1.2,24.99-5.71,49.56-13.41,73.02-6.56,19.96-15.47,39.22-26.5,57.32l-77.8-16.41c-4.66,2.73-9.51,5.12-14.55,7.15,32.37,6.83,64.75,13.66,97.12,20.49,10.72-16.66,22.38-38.51,31.23-65.43,18-54.79,15.3-103.1,11.27-131.65ZM209.74,38.42c.97-14.38,12.21-26.42,26.73-28.19.17-.02.34-.04.52-.06,8.09-.85,16.04,1.51,22.36,6.64,5.9,4.78,9.73,11.44,10.91,18.88-20.18.91-40.35,1.82-60.52,2.73Z"/>
        <g>
          <path class="cls-1" d="M245.55,135.5l10.32,7.71c-.76,1.01-1.75,2.1-3,3.15-3.68,3.06-7.58,3.97-9.51,4.27-.14-2.61-.21-8.52,2.19-15.13Z"/>
          <path class="cls-1" d="M270.32,147.77l-22.68-16.95c.68-1.26,1.47-2.53,2.38-3.79,3.05-4.21,6.52-6.97,9.19-8.71,2.05,1.84,4.34,4.35,6.33,7.64,4.98,8.24,5.2,16.77,4.78,21.81Z"/>
          <path class="cls-2" d="M191.46,132.5c7.76,26.28-27.46,62.58-58.39,79.21-23.81,12.8-46.65,14.77-59.6,14.89,8.85-1.51,23.47-5.19,38.69-15.21,11.6-7.63,19.46-16.24,24.36-22.57-8.9,8.08-25.95,21.43-51.13,29.35-23.41,7.36-43.58,6.79-55.29,5.58,6.06-1.52,13-3.58,20.55-6.4,2.85-1.07,12.25-4.67,24.13-11.02,8.85-4.73,20.28-11.64,32.75-21.47-10.24,7.28-28.36,18.19-53.41,23.75-22.82,5.07-42.12,3.65-54.12,1.83,18-3.45,41.08-9.77,66.1-21.86,17.21-8.32,31.48-17.51,42.89-25.98,2.27.53,20.71,4.52,30.81-6.35,1.29-1.39,2.62-3.21,3.73-5.61-19.97,8.4-41.92,6.28-56.99-6.02-11.12-9.08-15.16-20.97-16.63-26.55,3.7,3.55,15.59,14.04,33.74,15.38,10.12.75,18.29-1.63,23.09-3.49-32.55-.9-58.31-18.51-63.96-41.43-2.97-12.03.19-23.15,3.33-30.42.8,4.45,5.32,26.88,26.39,41.21,15.47,10.53,31.27,10.84,37.09,10.67-30.42-10.54-49.89-33.07-48.99-54.97.19-4.67,1.45-12.55,7.8-21.7,6.38,14.08,17.14,33.08,35.52,50.38,33.66,31.67,61.4,27.98,67.54,48.79Z"/>
          <path class="cls-2" d="M247.92,107.54c-20.91-16.56-60.21,5.56-62.38,6.82,6.55,3.48,9.89,7.57,11.72,11.09,9.53,18.26-6.47,50.48-40.87,79.2,7.94-2.31,18.68-6.48,29.79-14.25,19.31-13.53,29.14-30.57,33.58-39.77,2.34.76,5.34,1.51,8.87,1.85,3.17.32,5.97.23,8.24,0-.03-4.34.47-12.22,4.43-21.01,3.93-8.7,9.42-14.26,12.68-17.11-1.86-2.94-3.95-5.14-6.06-6.82ZM230.71,122.87c-4.79.8-9.99-3.71-9.5-6.81.43-2.72,5.26-4.48,9.03-4.12,2.16.21,6.24,1.33,6.81,4.12.59,2.9-2.9,6.24-6.34,6.81Z"/>
        </g>
      </g>
    </g>
  </g>
</svg>